<?xml version="1.0" encoding="iso-8859-1"?>
<!-- Generator: Adobe Illustrator 19.0.0, SVG Export Plug-In . SVG Version: 6.00 Build 0)  -->
<svg version="1.1" id="Layer_1" xmlns="http://www.w3.org/2000/svg" xmlns:xlink="http://www.w3.org/1999/xlink" x="0px" y="0px"
	 viewBox="0 0 512 512" style="enable-background:new 0 0 512 512;" xml:space="preserve">
<path style="fill:#E4EAF6;" d="M501.188,123.586H10.812C4.841,123.586,0,118.745,0,112.775V28.467
	c0-5.971,4.841-10.812,10.812-10.812h490.377c5.971,0,10.812,4.841,10.812,10.812v84.308
	C512,118.745,507.159,123.586,501.188,123.586z"/>
<path style="fill:#18BDF6;" d="M419.31,123.586h79.448c7.313,0,13.241-5.929,13.241-13.241V30.897
	c0-7.313-5.929-13.241-13.241-13.241H419.31c-7.313,0-13.241,5.929-13.241,13.241v79.448
	C406.069,117.657,411.998,123.586,419.31,123.586z"/>
<path style="fill:#FFFFFF;" d="M491.758,90.862l-17.655-17.655c-0.023-0.023-0.054-0.029-0.076-0.051
	c1.657-3.457,2.663-7.281,2.663-11.363c0-14.603-11.88-26.483-26.483-26.483c-14.603,0-26.483,11.88-26.483,26.483
	s11.88,26.483,26.483,26.483c4.083,0,7.906-1.006,11.363-2.663c0.022,0.023,0.028,0.054,0.051,0.076l17.655,17.655
	c1.724,1.725,3.982,2.586,6.241,2.586s4.518-0.862,6.241-2.586C495.207,99.896,495.207,94.311,491.758,90.862z M450.207,70.621
	c-4.866,0-8.828-3.961-8.828-8.828s3.961-8.828,8.828-8.828s8.828,3.961,8.828,8.828S455.073,70.621,450.207,70.621z"/>
<circle style="fill:#A6DCF6;" cx="357.517" cy="70.621" r="22.069"/>
<circle style="fill:#D7DEED;" cx="295.724" cy="70.621" r="22.069"/>
<path style="fill:#E4EAF6;" d="M501.188,264.828H10.812C4.841,264.828,0,259.987,0,254.016v-84.308
	c0-5.971,4.841-10.812,10.812-10.812h490.377c5.971,0,10.812,4.841,10.812,10.812v84.308
	C512,259.987,507.159,264.828,501.188,264.828z"/>
<path style="fill:#C3B4FA;" d="M79.448,247.172H26.483c-4.875,0-8.828-3.953-8.828-8.828v-52.966c0-4.875,3.953-8.828,8.828-8.828
	h52.966c4.875,0,8.828,3.953,8.828,8.828v52.966C88.276,243.22,84.323,247.172,79.448,247.172z"/>
<path style="fill:#C7CFE2;" d="M432.552,238.345H114.759c-4.875,0-8.828-3.953-8.828-8.828l0,0c0-4.875,3.953-8.828,8.828-8.828
	h317.793c4.875,0,8.828,3.953,8.828,8.828l0,0C441.379,234.392,437.427,238.345,432.552,238.345z"/>
<path style="fill:#28BEFF;" d="M291.31,203.034H114.759c-4.875,0-8.828-3.953-8.828-8.828l0,0c0-4.875,3.953-8.828,8.828-8.828
	H291.31c4.875,0,8.828,3.953,8.828,8.828l0,0C300.138,199.082,296.185,203.034,291.31,203.034z"/>
<path style="fill:#C3E678;" d="M79.448,370.759H26.483c-4.875,0-8.828-3.953-8.828-8.828v-52.966c0-4.875,3.953-8.828,8.828-8.828
	h52.966c4.875,0,8.828,3.953,8.828,8.828v52.966C88.276,366.806,84.323,370.759,79.448,370.759z"/>
<path style="fill:#C7CFE2;" d="M432.552,361.931H114.759c-4.875,0-8.828-3.953-8.828-8.828l0,0c0-4.875,3.953-8.828,8.828-8.828
	h317.793c4.875,0,8.828,3.953,8.828,8.828l0,0C441.379,357.978,437.427,361.931,432.552,361.931z"/>
<path style="fill:#28BEFF;" d="M291.31,326.621H114.759c-4.875,0-8.828-3.953-8.828-8.828l0,0c0-4.875,3.953-8.828,8.828-8.828
	H291.31c4.875,0,8.828,3.953,8.828,8.828l0,0C300.138,322.668,296.185,326.621,291.31,326.621z"/>
<path style="fill:#FFE182;" d="M79.448,494.345H26.483c-4.875,0-8.828-3.953-8.828-8.828v-52.966c0-4.875,3.953-8.828,8.828-8.828
	h52.966c4.875,0,8.828,3.953,8.828,8.828v52.966C88.276,490.392,84.323,494.345,79.448,494.345z"/>
<path style="fill:#C7CFE2;" d="M432.552,485.517H114.759c-4.875,0-8.828-3.953-8.828-8.828l0,0c0-4.875,3.953-8.828,8.828-8.828
	h317.793c4.875,0,8.828,3.953,8.828,8.828l0,0C441.379,481.565,437.427,485.517,432.552,485.517z"/>
<path style="fill:#28BEFF;" d="M291.31,450.207H114.759c-4.875,0-8.828-3.953-8.828-8.828l0,0c0-4.875,3.953-8.828,8.828-8.828
	H291.31c4.875,0,8.828,3.953,8.828,8.828l0,0C300.138,446.254,296.185,450.207,291.31,450.207z"/>
<g>
</g>
<g>
</g>
<g>
</g>
<g>
</g>
<g>
</g>
<g>
</g>
<g>
</g>
<g>
</g>
<g>
</g>
<g>
</g>
<g>
</g>
<g>
</g>
<g>
</g>
<g>
</g>
<g>
</g>
</svg>
